<svg xmlns="http://www.w3.org/2000/svg" width="1200" height="320" viewBox="0 0 1200 320" role="img" aria-labelledby="title desc">
  <title id="title">ArchLens</title><desc id="desc">Local-first repository intelligence</desc>
  <defs>
    <linearGradient id="bg" x1="0" y1="0" x2="1" y2="1"><stop stop-color="#080b12"/><stop offset=".55" stop-color="#11172b"/><stop offset="1" stop-color="#152a31"/></linearGradient>
    <radialGradient id="glow"><stop stop-color="#4de2c5" stop-opacity=".34"/><stop offset="1" stop-color="#4de2c5" stop-opacity="0"/></radialGradient>
    <filter id="blur"><feGaussianBlur stdDeviation="26"/></filter>
    <filter id="shadow"><feDropShadow dx="0" dy="7" stdDeviation="9" flood-opacity=".35"/></filter>
  </defs>
  <rect width="1200" height="320" rx="24" fill="url(#bg)"/>
  <g opacity=".13" stroke="#b9c3ff"><path d="M0 52H1200M0 104H1200M0 156H1200M0 208H1200M0 260H1200M120 0V320M240 0V320M360 0V320M480 0V320M600 0V320M720 0V320M840 0V320M960 0V320M1080 0V320"/></g>
  <circle cx="975" cy="146" r="215" fill="url(#glow)" filter="url(#blur)"/>
  <g stroke-linecap="round" fill="none" filter="url(#shadow)">
    <path d="M824 84L942 54L1060 113L995 216L867 232L824 84" stroke="#6776d9" stroke-width="2" opacity=".7"/>
    <path d="M824 84L995 216M942 54L867 232M1060 113L867 232M824 84L1060 113" stroke="#3b466e" stroke-width="1.5"/>
    <path d="M942 54L995 216" stroke="#ff5d7d" stroke-width="3" opacity=".9"/>
  </g>
  <g filter="url(#shadow)"><circle cx="824" cy="84" r="13" fill="#0e1520" stroke="#f7df1e" stroke-width="4"/><circle cx="942" cy="54" r="17" fill="#0e1520" stroke="#5ea7e0" stroke-width="4"/><circle cx="1060" cy="113" r="12" fill="#0e1520" stroke="#ffd343" stroke-width="4"/><circle cx="995" cy="216" r="21" fill="#0e1520" stroke="#ff5d7d" stroke-width="4"/><circle cx="867" cy="232" r="14" fill="#0e1520" stroke="#5dc9e2" stroke-width="4"/></g>
  <g font-family="Inter,Segoe UI,sans-serif"><text x="70" y="91" fill="#4de2c5" font-size="15" font-weight="700" letter-spacing="4">LOCAL-FIRST · ZERO RUNTIME DEPS</text><text x="66" y="174" fill="#f2f5ff" font-size="72" font-weight="760" letter-spacing="-4">ArchLens</text><text x="70" y="220" fill="#9da9bd" font-size="23">See the architecture hiding inside your repository.</text><text x="70" y="263" fill="#c7d0e0" font-size="15">DEPENDENCIES  /  CYCLES  /  HOTSPOTS  /  INTERACTIVE REPORTS</text></g>
</svg>
