<svg xmlns="http://www.w3.org/2000/svg" width="1200" height="720" viewBox="0 0 1200 720" role="img" aria-labelledby="title desc">
  <title id="title">ArchLens HTML report preview</title><desc id="desc">A dark repository intelligence dashboard with a dependency graph, hotspot ranking, and cycle summary.</desc>
  <defs><linearGradient id="bg" x2="1" y2="1"><stop stop-color="#080b12"/><stop offset="1" stop-color="#121a2d"/></linearGradient><filter id="shadow"><feDropShadow dx="0" dy="10" stdDeviation="14" flood-opacity=".4"/></filter></defs>
  <rect width="1200" height="720" rx="20" fill="url(#bg)"/>
  <g font-family="Inter,Segoe UI,sans-serif"><text x="44" y="53" fill="#4de2c5" font-size="13" font-weight="700" letter-spacing="2">◈ ARCHLENS</text><text x="44" y="94" fill="#eef2fb" font-size="30" font-weight="700">acme-api architecture</text><text x="44" y="120" fill="#8491a6" font-size="13">Repository intelligence · dependencies, cycles, and change-risk hotspots</text></g>
  <g font-family="Inter,Segoe UI,sans-serif" filter="url(#shadow)"><g transform="translate(44 149)"><rect width="188" height="80" rx="12" fill="#111824" stroke="#263044"/><text x="17" y="36" fill="#fff" font-size="25" font-weight="700">147</text><text x="17" y="59" fill="#8491a6" font-size="10" letter-spacing="1">SOURCE FILES</text></g><g transform="translate(244 149)"><rect width="188" height="80" rx="12" fill="#111824" stroke="#263044"/><text x="17" y="36" fill="#fff" font-size="25" font-weight="700">312</text><text x="17" y="59" fill="#8491a6" font-size="10" letter-spacing="1">LOCAL EDGES</text></g><g transform="translate(444 149)"><rect width="188" height="80" rx="12" fill="#111824" stroke="#263044"/><text x="17" y="36" fill="#ff5d7d" font-size="25" font-weight="700">3</text><text x="17" y="59" fill="#8491a6" font-size="10" letter-spacing="1">CYCLES</text></g><g transform="translate(644 149)"><rect width="188" height="80" rx="12" fill="#111824" stroke="#263044"/><text x="17" y="36" fill="#fff" font-size="25" font-weight="700">18,420</text><text x="17" y="59" fill="#8491a6" font-size="10" letter-spacing="1">LINES OF CODE</text></g><g transform="translate(844 149)"><rect width="312" height="80" rx="12" fill="#111824" stroke="#263044"/><text x="17" y="36" fill="#fff" font-size="25" font-weight="700">41</text><text x="17" y="59" fill="#8491a6" font-size="10" letter-spacing="1">EXTERNAL IMPORTS</text></g></g>
  <g transform="translate(44 247)" filter="url(#shadow)"><rect width="790" height="427" rx="14" fill="#0d121b" stroke="#263044"/><rect x="16" y="15" width="430" height="38" rx="8" fill="#080c14" stroke="#263044"/><text x="31" y="39" fill="#69778d" font-family="Inter,Segoe UI,sans-serif" font-size="12">Search files…</text><rect x="458" y="15" width="140" height="38" rx="8" fill="#111824" stroke="#263044"/><text x="477" y="39" fill="#a4afc0" font-family="Inter,Segoe UI,sans-serif" font-size="12">All languages</text><g opacity=".1" stroke="#fff"><path d="M0 89H790M0 139H790M0 189H790M0 239H790M0 289H790M0 339H790M100 66V427M200 66V427M300 66V427M400 66V427M500 66V427M600 66V427M700 66V427"/></g>
    <g fill="none" stroke="#536079" opacity=".7"><path d="M147 181L280 114L401 189L530 102L650 187L579 306L422 345L265 294L147 181"/><path d="M280 114L422 345M401 189L265 294M530 102L579 306M650 187L422 345"/><path d="M401 189L579 306" stroke="#ff5d7d" stroke-width="3"/></g>
    <g fill="#0d121b" stroke-width="4"><circle cx="147" cy="181" r="13" stroke="#f7df1e"/><circle cx="280" cy="114" r="16" stroke="#5ea7e0"/><circle cx="401" cy="189" r="19" stroke="#ff5d7d"/><circle cx="530" cy="102" r="11" stroke="#ffd343"/><circle cx="650" cy="187" r="14" stroke="#5dc9e2"/><circle cx="579" cy="306" r="17" stroke="#ff5d7d"/><circle cx="422" cy="345" r="13" stroke="#5ea7e0"/><circle cx="265" cy="294" r="10" stroke="#f7df1e"/></g>
    <g fill="#c0cada" font-family="ui-monospace,monospace" font-size="10"><text x="165" y="185">router.ts</text><text x="300" y="118">service.ts</text><text x="424" y="193">auth.ts</text><text x="547" y="106">models.py</text><text x="667" y="191">main.go</text><text x="598" y="310">session.ts</text></g></g>
  <g transform="translate(851 247)" font-family="Inter,Segoe UI,sans-serif" filter="url(#shadow)"><rect width="305" height="427" rx="14" fill="#0d121b" stroke="#263044"/><text x="17" y="31" fill="#8491a6" font-size="10" letter-spacing="1.5">TOP HOTSPOTS</text><g font-size="12"><text x="18" y="68" fill="#657289">01</text><text x="48" y="68" fill="#dbe2ee">src/auth.ts</text><text x="260" y="68" fill="#ffbd59">92.4</text><path d="M17 82H288" stroke="#202939"/><text x="18" y="111" fill="#657289">02</text><text x="48" y="111" fill="#dbe2ee">src/session.ts</text><text x="260" y="111" fill="#ffbd59">84.1</text><path d="M17 126H288" stroke="#202939"/><text x="18" y="155" fill="#657289">03</text><text x="48" y="155" fill="#dbe2ee">src/service.ts</text><text x="260" y="155" fill="#ffbd59">78.6</text></g><text x="17" y="211" fill="#8491a6" font-size="10" letter-spacing="1.5">DEPENDENCY CYCLES</text><rect x="17" y="231" width="34" height="20" rx="10" fill="#ff5d7d22" stroke="#ff5d7d88"/><text x="28" y="245" fill="#ff5d7d" font-size="10">2</text><text x="61" y="245" fill="#c4ccda" font-size="11">auth.ts → session.ts</text><rect x="17" y="270" width="34" height="20" rx="10" fill="#ff5d7d22" stroke="#ff5d7d88"/><text x="28" y="284" fill="#ff5d7d" font-size="10">3</text><text x="61" y="284" fill="#c4ccda" font-size="11">router → service → auth</text><text x="17" y="351" fill="#8491a6" font-size="10" letter-spacing="1.5">LEGEND</text><circle cx="24" cy="382" r="5" fill="#f7df1e"/><text x="36" y="386" fill="#8491a6" font-size="10">JS</text><circle cx="78" cy="382" r="5" fill="#5ea7e0"/><text x="90" y="386" fill="#8491a6" font-size="10">TS</text><circle cx="132" cy="382" r="5" fill="#ffd343"/><text x="144" y="386" fill="#8491a6" font-size="10">Python</text><circle cx="208" cy="382" r="5" fill="#5dc9e2"/><text x="220" y="386" fill="#8491a6" font-size="10">Go</text></g>
</svg>
